<svg xmlns="http://www.w3.org/2000/svg" enable-background="new 0 0 64 64" viewBox="0 0 64 64" id="online-report-analysis">
  <path fill="#b1e068" d="M59,41H39c-2.2,0-4-1.8-4-4V7c0-2.2,1.8-4,4-4h16c2.2,0,4,1.8,4,4v30"></path>
  <path fill="#91c846" d="M38,40c0,0,2,0,2-6h20c0,4-4,4-4,4l-2,3H38C38,41,37,42,38,40z"></path>
  <polygon fill="#b1e068" points="27 28 23 31 23 47 27 47"></polygon>
  <polygon fill="#b1e068" points="19 36 15 33 15 47 19 47"></polygon>
  <polygon fill="#b1e068" points="11 31 7 35 7 47 11 47"></polygon>
  <path fill="#dbf4b3" d="M35 40V12h-4v25c0 5 3 8 8 8h12v-5H35zM56.4 5.1H37.6c-.3 0-.6-.2-.6-.6v0C37 4.2 37.2 4 37.6 4h18.9C56.8 4 57 4.2 57 4.6v0C57 4.9 56.8 5.1 56.4 5.1z"></path>
  <path fill="#dbf4b3" d="M59,41c0,0,4,0,4-4H43c0,4-4,4-4,4"></path>
  <path fill="#719e2b" d="M47,53H5c-2.8,0-5-2.2-5-5V16c0-2.8,2.2-5,5-5h30c0.6,0,1,0.4,1,1s-0.4,1-1,1H5c-1.7,0-3,1.3-3,3v32
			c0,1.7,1.3,3,3,3h42c1.7,0,3-1.3,3-3v-7c0-0.6,0.4-1,1-1s1,0.4,1,1v7C52,50.8,49.8,53,47,53z"></path>
  <circle cx="5.5" cy="16.5" r="1.5" fill="#719e2b"></circle>
  <circle cx="9.5" cy="16.5" r="1.5" fill="#719e2b"></circle>
  <circle cx="13.5" cy="16.5" r="1.5" fill="#719e2b"></circle>
  <path fill="#719e2b" d="M59,42H39c-2.8,0-5-2.2-5-5V7c0-2.8,2.2-5,5-5h16c2.8,0,5,2.2,5,5v30c0,0.6-0.4,1-1,1s-1-0.4-1-1V7
			c0-1.7-1.3-3-3-3H39c-1.7,0-3,1.3-3,3v30c0,1.7,1.3,3,3,3h20c0.6,0,1,0.4,1,1S59.6,42,59,42z"></path>
  <path fill="#719e2b" d="M59 42c-.6 0-1-.4-1-1 0-.6.4-1 1-1 .4 0 2.4-.1 2.9-2h-18c-.5 3.1-3.4 4-4.9 4-.6 0-1-.4-1-1s.4-1 1-1c.5 0 3-.2 3-3 0-.6.4-1 1-1h20c.6 0 1 .4 1 1C64 41 60.7 42 59 42zM44 9h-4c-.6 0-1-.4-1-1s.4-1 1-1h4c.6 0 1 .4 1 1S44.6 9 44 9zM47 13h-7c-.6 0-1-.4-1-1s.4-1 1-1h7c.6 0 1 .4 1 1S47.6 13 47 13zM44 17h-4c-.6 0-1-.4-1-1s.4-1 1-1h4c.6 0 1 .4 1 1S44.6 17 44 17zM49 17h-2c-.6 0-1-.4-1-1s.4-1 1-1h2c.6 0 1 .4 1 1S49.6 17 49 17zM45 30h-5c-.6 0-1-.4-1-1s.4-1 1-1h5c.6 0 1 .4 1 1S45.6 30 45 30z"></path>
  <path fill="#b1e068" d="M43.4,57.6l-5-5l3.5-3.6c0-1.1-0.9-2-2-2H32c-1.1,0-2,0.9-2,2v8c0,1.1,0.9,2,2,2l3.5-3.6l5,5
			c0.8,0.8,2.1,0.8,2.8,0C44.2,59.6,44.2,58.4,43.4,57.6z"></path>
  <path fill="#719e2b" d="M42 62c-.8 0-1.5-.3-2.1-.9l-4.3-4.3-2.8 2.8C32.6 59.9 32.3 60 32 60c-1.7 0-3-1.4-3-3v-8c0-1.7 1.4-3 3-3h7.8c1.7 0 3 1.4 3 3 0 .3-.1.5-.3.7l-2.8 2.9 4.3 4.3c0 0 0 0 0 0 1.2 1.2 1.2 3.1 0 4.2C43.5 61.7 42.7 62 42 62zM35.6 54.4c.3 0 .5.1.7.3l5 5c.4.4 1 .4 1.4 0 .4-.4.4-1 0-1.4l-5-5c-.4-.4-.4-1 0-1.4l3.2-3.2c-.1-.4-.5-.7-1-.7H32c-.6 0-1 .5-1 1v8c0 .4.3.8.7 1l3.2-3.2C35 54.5 35.3 54.4 35.6 54.4 35.5 54.4 35.6 54.4 35.6 54.4zM5 38c-.3 0-.5-.1-.7-.3-.4-.4-.4-1 0-1.4l7-7c.4-.4 1-.4 1.4 0l5.3 5.3 11.3-11.3c.4-.4 1-.4 1.4 0s.4 1 0 1.4l-12 12c-.4.4-1 .4-1.4 0L12 31.4l-6.3 6.3C5.5 37.9 5.3 38 5 38z"></path>
  <path fill="#719e2b" d="M31 29c-.6 0-1-.4-1-1v-4h-4c-.6 0-1-.4-1-1s.4-1 1-1h5c.6 0 1 .4 1 1v5C32 28.6 31.6 29 31 29zM11 48H7c-.6 0-1-.4-1-1v-7c0-.6.4-1 1-1s1 .4 1 1v6h2V36c0-.6.4-1 1-1s1 .4 1 1v11C12 47.6 11.6 48 11 48zM19 48h-4c-.6 0-1-.4-1-1v-9c0-.6.4-1 1-1s1 .4 1 1v8h2v-6c0-.6.4-1 1-1s1 .4 1 1v7C20 47.6 19.6 48 19 48zM27 48h-4c-.6 0-1-.4-1-1V36c0-.6.4-1 1-1s1 .4 1 1v10h2V32c0-.6.4-1 1-1s1 .4 1 1v15C28 47.6 27.6 48 27 48z"></path>
</svg>
