<svg xmlns="http://www.w3.org/2000/svg" xmlns:xlink="http://www.w3.org/1999/xlink" width="2380" zoomAndPan="magnify" viewBox="0 0 1784.88 1784.99993" height="2380" preserveAspectRatio="xMidYMid meet" version="1.0"><defs><clipPath id="4a9420af87"><path d="M 1232 857 L 1762.496094 857 L 1762.496094 1117 L 1232 1117 Z M 1232 857 " clip-rule="nonzero"/></clipPath><clipPath id="f0a89373ca"><path d="M 250 1179 L 1535 1179 L 1535 1707.910156 L 250 1707.910156 Z M 250 1179 " clip-rule="nonzero"/></clipPath><clipPath id="f42ef72edc"><path d="M 1034.203125 524.863281 L 1108.449219 524.863281 L 1108.449219 599.109375 L 1034.203125 599.109375 Z M 1034.203125 524.863281 " clip-rule="nonzero"/></clipPath></defs><path fill="#abdd66" d="M 287.578125 836.140625 C 365.871094 836.140625 429.363281 725.421875 429.363281 647.128906 C 429.363281 568.839844 365.871094 510.621094 287.578125 510.621094 C 209.34375 510.621094 145.847656 568.839844 145.847656 647.128906 C 145.847656 725.421875 209.34375 836.140625 287.578125 836.140625 " fill-opacity="1" fill-rule="nonzero"/><path fill="#abdd66" d="M 435.511719 402.460938 C 513.804688 402.460938 577.242188 291.796875 577.242188 213.507812 C 577.242188 135.214844 513.804688 77 435.511719 77 C 357.21875 77 293.78125 135.214844 293.78125 213.507812 C 293.78125 291.796875 357.21875 402.460938 435.511719 402.460938 " fill-opacity="1" fill-rule="nonzero"/><path fill="#abdd66" d="M 509.339844 1116.226562 C 534.640625 1116.226562 554.445312 1094.570312 552.484375 1069.328125 C 550.039062 1037.117188 545.03125 1005.5625 537.6875 974.769531 C 523.757812 916.390625 477.785156 871.613281 420.550781 857.519531 C 384.96875 893.046875 339.972656 916.824219 287.578125 916.824219 C 235.238281 916.824219 190.246094 893.046875 154.609375 857.519531 C 97.425781 871.613281 51.453125 916.390625 37.523438 974.769531 C 30.179688 1005.5625 25.175781 1037.117188 22.671875 1069.328125 C 20.765625 1094.570312 40.570312 1116.226562 65.871094 1116.226562 L 509.339844 1116.226562 " fill-opacity="1" fill-rule="nonzero"/><path fill="#abdd66" d="M 1355.640625 647.128906 C 1355.640625 725.421875 1419.078125 836.140625 1497.371094 836.140625 C 1575.664062 836.140625 1639.101562 725.421875 1639.101562 647.128906 C 1639.101562 568.839844 1575.664062 510.621094 1497.371094 510.621094 C 1419.078125 510.621094 1355.640625 568.839844 1355.640625 647.128906 " fill-opacity="1" fill-rule="nonzero"/><path fill="#abdd66" d="M 1349.492188 402.460938 C 1427.730469 402.460938 1491.222656 291.796875 1491.222656 213.507812 C 1491.222656 135.214844 1427.730469 77 1349.492188 77 C 1271.203125 77 1207.761719 135.214844 1207.761719 213.507812 C 1207.761719 291.796875 1271.203125 402.460938 1349.492188 402.460938 " fill-opacity="1" fill-rule="nonzero"/><g clip-path="url(#4a9420af87)"><path fill="#abdd66" d="M 1747.480469 974.769531 C 1733.550781 916.390625 1687.578125 871.613281 1630.339844 857.519531 C 1594.757812 893.046875 1549.710938 916.824219 1497.371094 916.824219 C 1445.03125 916.824219 1400.039062 893.046875 1364.402344 857.519531 C 1307.164062 871.613281 1261.191406 916.390625 1247.261719 974.769531 C 1239.972656 1005.5625 1234.914062 1037.117188 1232.464844 1069.328125 C 1230.558594 1094.570312 1250.363281 1116.226562 1275.664062 1116.226562 L 1719.078125 1116.226562 C 1744.378906 1116.226562 1764.238281 1094.570312 1762.277344 1069.328125 C 1759.828125 1037.117188 1754.824219 1005.5625 1747.480469 974.769531 " fill-opacity="1" fill-rule="nonzero"/></g><path fill="#abdd66" d="M 892.476562 402.460938 C 970.765625 402.460938 1034.257812 291.796875 1034.257812 213.507812 C 1034.257812 135.214844 970.765625 77 892.476562 77 C 814.238281 77 750.746094 135.214844 750.746094 213.507812 C 750.746094 291.796875 814.238281 402.460938 892.476562 402.460938 " fill-opacity="1" fill-rule="nonzero"/><path fill="#abdd66" d="M 670.765625 682.546875 L 739.589844 682.546875 L 769.1875 623.734375 C 792.746094 576.726562 839.972656 547.621094 892.53125 547.621094 C 944.976562 547.621094 992.3125 576.726562 1015.871094 623.734375 L 1045.304688 682.546875 L 1114.183594 682.546875 C 1139.535156 682.546875 1159.339844 660.949219 1157.382812 635.703125 C 1154.878906 603.496094 1149.875 571.992188 1142.582031 541.144531 C 1128.601562 482.765625 1082.628906 437.933594 1025.445312 423.953125 C 989.808594 459.316406 944.867188 483.203125 892.53125 483.203125 C 840.082031 483.203125 795.140625 459.316406 759.503906 423.953125 C 702.269531 437.933594 656.347656 482.765625 642.476562 541.144531 C 635.074219 571.992188 630.070312 603.496094 627.566406 635.703125 C 625.609375 660.949219 645.414062 682.546875 670.765625 682.546875 " fill-opacity="1" fill-rule="nonzero"/><g clip-path="url(#f0a89373ca)"><path fill="#abdd66" d="M 1529.960938 1288.261719 C 1519.679688 1262.796875 1492.472656 1248.488281 1465.707031 1254.582031 C 1406.945312 1267.859375 1313.257812 1288.914062 1313.257812 1288.914062 L 1131.703125 1200.882812 C 1095.628906 1186.847656 1057.21875 1179.71875 1018.644531 1179.71875 L 766.304688 1179.71875 C 727.730469 1179.71875 689.265625 1186.847656 653.246094 1200.882812 L 471.636719 1288.914062 L 317.71875 1254.257812 C 291.824219 1248.433594 265.488281 1262.199219 255.535156 1286.792969 L 255.042969 1288.042969 C 243.292969 1317.097656 257.328125 1349.902344 286.273438 1361.382812 L 451.179688 1426.671875 C 463.421875 1431.515625 476.859375 1432.167969 489.484375 1428.574219 L 684.640625 1372.808594 C 694.160156 1370.089844 703.628906 1377.214844 703.628906 1387.0625 L 704.933594 1708.0625 L 1080.015625 1708.0625 L 1081.265625 1387.0625 C 1081.320312 1377.214844 1090.789062 1370.089844 1100.253906 1372.808594 L 1295.46875 1428.574219 C 1308.089844 1432.167969 1321.527344 1431.515625 1333.769531 1426.671875 L 1498.675781 1361.382812 C 1527.621094 1349.902344 1541.660156 1317.097656 1529.960938 1288.261719 " fill-opacity="1" fill-rule="nonzero"/></g><path fill="#abdd66" d="M 1095.574219 800.339844 L 974.25 781.949219 L 919.1875 672.210938 C 908.199219 650.230469 876.804688 650.230469 865.761719 672.210938 L 810.757812 781.949219 L 689.375 800.339844 C 665.054688 804.039062 655.371094 833.910156 672.890625 851.15625 L 760.210938 937.390625 L 740.246094 1058.5 C 736.273438 1082.765625 761.625 1101.210938 783.496094 1089.949219 L 892.476562 1033.472656 L 1001.507812 1089.949219 C 1023.324219 1101.210938 1048.730469 1082.765625 1044.707031 1058.5 L 1024.738281 937.390625 L 1112.117188 851.15625 C 1129.582031 833.910156 1119.894531 804.039062 1095.574219 800.339844 " fill-opacity="1" fill-rule="nonzero"/><g clip-path="url(#f42ef72edc)"><path fill="#abdd66" d="M 1108.566406 554.832031 L 1078.597656 554.832031 L 1078.597656 524.863281 L 1064.171875 524.863281 L 1064.171875 554.832031 L 1034.203125 554.832031 L 1034.203125 569.257812 L 1064.171875 569.257812 L 1064.171875 599.226562 L 1078.597656 599.226562 L 1078.597656 569.257812 L 1108.566406 569.257812 Z M 1108.566406 554.832031 " fill-opacity="1" fill-rule="nonzero"/></g></svg>